Music_Sans_Ch1::
	tempo 120
	volume 7, 7
	duty_cycle 3
	note_type 12, 2, 15
	rest 8
	octave 3
	note D_, 8

Music_Sans_branch_1::
	octave 3
	note D_, 1
	note D_, 1
	octave 4
	note D_, 2
	octave 3
	note A_, 3
	note G#, 2
	note G_, 2 ; 2
	note F_, 2
	note D_, 1
	note F_, 1
	note G_, 1 ; 2
	note C_, 1
	note C_, 1
	octave 4
	note D_, 2
	octave 3
	note A_, 3
	note G#, 2
	note G_, 2
	note F_, 2
	note D_, 1
	note F_, 1
	note G_, 1 ; 2
	note C_, 1
	note C_, 1
	octave 4
	note D_, 2
	octave 3
	note A_, 3
	note G#, 2
	note G_, 2
	note F_, 2
	note D_, 1
	note F_, 1
	note G_, 1 ; 2
	note C_, 1 ; A#
	note C_, 1 ; A#
	octave 4
	note D_, 2
	octave 3
	note A_, 3
	note G#, 2
	note G_, 2
	note F_, 1
	note D_, 2
	note F_, 1
	note G_, 1
	note F_, 1
	note F_, 1
	note F_, 1
	note F_, 1 ;
	note D_, 1
	note D_, 1
	note D_, 1
	note F_, 1
	note F_, 1
	note F_, 1
	note G_, 1
	note G#, 1
	note G_, 2
	note F_, 1
	note D_, 2
	note F_, 1
	sound_loop 0, Music_Sans_branch_2
	sound_ret


Music_Sans_Ch2::
	duty_cycle 3
	note_type 12, 12, 2
	octave 4
	note D_, 1
	note C#, 1
	note D_, 1
	note E_, 1
	note F#, 1
	note E_, 1
	note F#, 1
	note G_, 1
	note_type 12, 10, 0
	note A_, 8

Music_Sans_branch_2::
	duty_cycle 2
	note_type 12, 12, 2
	octave 4
	note B_, 4
	note G_, 4
	note B_, 2
	note G_, 6
	note B_, 1
	note G_, 1
	note A_, 1
	note B_, 1
	octave 5
	note C_, 2
	octave 4
	note B_, 2
	note A_, 8
	note A_, 4
	note F#, 4
	note A_, 2
	note F#, 6
	note A_, 1
	note G_, 1
	note F#, 1
	note G_, 1
	note A_, 2
	note B_, 2
	note G_, 4
	note B_, 4
	note B_, 4
	note G_, 4
	note B_, 2
	note G_, 4
	octave 3
	note B_, 2
	octave 4
	note B_, 1
	note G_, 1
	note A_, 1
	note B_, 1
	octave 5
	note C_, 2
	octave 4
	note B_, 2
	note A_, 8
	note A_, 2
	note G_, 2
	note F#, 2
	note G_, 2
	note F#, 2
	note E_, 2
	note D_, 2
	note C#, 2
	note D_, 8
	octave 5
	note D_, 8
	note_type 12, 11, 4
	octave 4
	note D_, 8
	note C_, 2
	octave 3
	note B_, 2
	note A_, 2
	note B_, 2
	octave 4
	note E_, 4
	note F#, 4
	note D_, 8
	note C_, 8
	octave 3
	note A_, 2
	note B_, 2
	octave 4
	note C_, 2
	note D_, 2
	note E_, 2
	note C_, 2
	note D_, 2
	note E_, 2
	note D_, 8
	note D_, 8
	note C_, 2
	octave 3
	note B_, 2
	note A_, 2
	note B_, 2
	octave 4
	note E_, 4
	note D_, 2
	note E_, 2
	note D_, 8
	note C_, 8
	note A_, 2
	note G_, 2
	note F#, 2
	note E_, 2
	note F#, 2
	note E_, 2
	note D_, 2
	note E_, 2
	note D_, 8
	sound_loop 0, Music_Sans_branch_2


Music_Sans_Ch3::
	note_type 12, 1, 3
	rest 8
	octave 5
	note D_, 1
	note C#, 1
	note D_, 1
	note E_, 1
	note F#, 1
	note E_, 1
	note F#, 1
	note G_, 1

Music_Sans_branch_3::
	octave 4
	note D_, 2
	note B_, 2
	note D_, 2
	note B_, 2
	note D_, 2
	note B_, 2
	note D_, 2
	note B_, 2
	note D_, 2
	note B_, 2
	note D_, 2
	note B_, 2
	note D_, 2
	note A_, 2
	note D_, 2
	note A_, 2
	note D_, 2
	note A_, 2
	note D_, 2
	note A_, 2
	note D_, 2
	note A_, 2
	note D_, 2
	note A_, 2
	note D_, 2
	note A_, 2
	note D_, 2
	note A_, 2
	note D_, 2
	note B_, 2
	note D_, 2
	note B_, 2
	note D_, 2
	note B_, 2
	note D_, 2
	note B_, 2
	note D_, 2
	note B_, 2
	note D_, 2
	note B_, 2
	note D_, 2
	note B_, 2
	note D_, 2
	note B_, 2
	note D_, 2
	note A_, 2
	note D_, 2
	note A_, 2
	note D_, 2
	note A_, 2
	note G_, 2
	note A_, 2
	note G_, 2
	note F#, 2
	note E_, 2
	note C#, 2
	note D_, 2
	rest 6
	note F#, 2
	rest 4
	note F#, 2
	note G_, 2
	octave 5
	note D_, 2
	octave 4
	note G_, 2
	octave 5
	note D_, 2
	octave 4
	note G_, 2
	octave 5
	note D_, 2
	octave 4
	note G_, 2
	note B_, 2
	note G_, 2
	octave 5
	note E_, 2
	note D_, 2
	note C_, 2
	note D_, 2
	octave 4
	note B_, 2
	note G_, 2
	octave 5
	note C_, 2
	octave 4
	note F#, 2
	octave 5
	note D_, 2
	octave 4
	note F#, 2
	octave 5
	note D_, 2
	octave 4
	note F#, 2
	octave 5
	note D_, 2
	octave 4
	note F#, 2
	octave 5
	note D_, 2
	octave 4
	note F#, 2
	octave 5
	note E_, 2
	note D_, 2
	note C_, 2
	note D_, 2
	octave 4
	note B_, 2
	note A_, 2
	octave 5
	note C_, 2
	octave 4
	note G_, 2
	octave 5
	note D_, 2
	octave 4
	note G_, 2
	octave 5
	note D_, 2
	octave 4
	note G_, 2
	octave 5
	note D_, 2
	octave 4
	note G_, 2
	note B_, 2
	note G_, 2
	octave 5
	note E_, 2
	note D_, 2
	note C_, 2
	note D_, 2
	octave 4
	note B_, 2
	note G_, 2
	octave 5
	note C_, 2
	octave 4
	note F#, 2
	octave 5
	note D_, 2
	octave 4
	note F#, 2
	octave 5
	note D_, 2
	octave 4
	note F#, 2
	octave 5
	note D_, 2
	octave 4
	note F#, 2
	octave 5
	note D_, 2
	octave 4
	note F#, 2
	octave 5
	note D_, 2
	note C_, 2
	octave 4
	note B_, 2
	note A_, 2
	note G_, 2
	note F#, 2
	note E_, 2
	sound_loop 0, Music_Sans_branch_3
